<?xml version="1.0" encoding="utf-8"?>
<svg id="Layer_1" style="enable-background:new 0 0 80 80;" x="0px" y="0px" viewBox="0 0 80 80" xmlns="http://www.w3.org/2000/svg">
  <style type="text/css">
	.st0{clip-path:url(#SVGID_2_);fill:#F0BF1A;}
	.st1{clip-path:url(#SVGID_4_);fill:#3EBEB0;}
	.st2{clip-path:url(#SVGID_6_);fill:#07A5DE;}
	.st3{clip-path:url(#SVGID_8_);fill:#231F20;}
	.st4{fill:#D7A229;}
	.st5{fill:#019B8F;}
	.st6{fill:none;}
</style>
  <g transform="matrix(0.281461, 0, 0, 0.249671, 26.913818, 22.191544)">
    <g>
      <g>
        <g>
          <g>
            <defs>
              <circle id="SVGID_1_" cx="40" cy="40" r="32"/>
              <style id="bx-google-fonts">@import url(https://fonts.googleapis.com/css?family=Roboto:100,300,500,700,900,100italic,300italic,400,400italic,500italic,700italic,900italic);</style>
            </defs>
            <path class="st0" d="M53.7,26H10c-1.1,0-2-0.9-2-2V10c0-1.1,0.9-2,2-2h57c1.1,0,2,0.9,2,2v0.7C68.9,19.1,62.1,26,53.7,26z"/>
          </g>
        </g>
        <g>
          <g>
            <defs>
              <circle id="SVGID_3_" cx="40" cy="40" r="32"/>
            </defs>
            <path class="st1" d="M69.1,72H8.2l0,0V54l0,0h45.7c8.4,0,15.2,6.8,15.2,15.2V72L69.1,72z"/>
          </g>
        </g>
        <g>
          <g>
            <defs>
              <circle id="SVGID_5_" cx="40" cy="40" r="32"/>
            </defs>
            <path class="st2" d="M50.1,49H4.8V31h45.3c5,0,9,4,9,9l0,0C59.1,45,55,49,50.1,49z"/>
          </g>
        </g>
        <g>
          <g>
            <defs>
              <circle id="SVGID_7_" cx="40" cy="40" r="32"/>
            </defs>
            <path class="st3" d="M36,31H6.4v18H36c0.7-2.7,1.1-5.7,1.1-9S36.7,33.7,36,31z"/>
          </g>
        </g>
      </g>
      <path class="st4" d="M23.9,12.3c-5.4,3.2-9.9,8-12.7,13.7h23.6C32.4,20.5,28.6,15.9,23.9,12.3z"/>
      <path class="st5" d="M24.9,68.2c4.6-3.7,8.3-8.6,10.6-14.2H11.2C14.2,60,19,65,24.9,68.2z"/>
    </g>
  </g>
  <rect class="st6" width="80" height="80"/>
  <g transform="matrix(0.274983, 0, 0, 0.285637, 1.170295, 50.766064)">
    <path class="st0" d="M19.6,33.1c7.3,0,14.2,1.9,20.2,5.1l21.4-25.7H18.8v51l0,0V33.1C19.1,33.1,19.4,33.1,19.6,33.1z" style="fill: rgb(233, 71, 138);"/>
    <path class="st1" d="M39.8,38.2l-21,25.3v4h42.3C58.7,54.9,50.7,44.2,39.8,38.2z"/>
    <path class="st2" d="M39.8,38.2l-21,25.3v4h7.5l20.4-24.6c0,0-1.4-1.1-3.3-2.5C42,39.4,39.8,38.2,39.8,38.2z"/>
    <path class="st3" d="M19.6,33.1c-0.3,0-0.5,0-0.8,0v30.4l21-25.3C33.8,35,26.9,33.1,19.6,33.1z"/>
  </g>
  <g transform="matrix(0.263481, 0, 0, 0.236029, 47.481827, 53.296074)">
    <path class="st0" d="M41.1,41.9H15.6V12.5h7.7c9.9,0,17.8,8,17.8,17.8V41.9z"/>
    <path class="st1" d="M41.1,67.5L41.1,67.5c-14.1,0-25.6-11.4-25.6-25.6l0,0h25.6V67.5z"/>
    <rect x="41.1" y="41.9" class="st2" width="23.3" height="25.6"/>
    <rect x="41.1" y="41.9" class="st3" width="5.4" height="25.6"/>
  </g>
  <text x="19.173" y="11.078" style="font-size: 36px; font-family: Roboto; white-space: pre;" transform="matrix(0.478336, 0, 0, 0.266985, -9.279898, 8.323094)">ELK Stack</text>
</svg>